<mxfile host="app.diagrams.net" modified="2020-11-01T15:42:59.927Z" agent="5.0 (Macintosh; Intel Mac OS X 10_15_3) AppleWebKit/537.36 (KHTML, like Gecko) Chrome/86.0.4240.111 Safari/537.36" etag="QCv-BThEAd8XaEboQ2x6" version="13.8.8" type="github">
  <diagram id="BXzzaTWe4Gh699rgI_D8" name="Page-1">
    <mxGraphModel dx="2703" dy="1546" grid="1" gridSize="10" guides="1" tooltips="1" connect="1" arrows="1" fold="1" page="1" pageScale="1" pageWidth="850" pageHeight="1100" math="0" shadow="0">
      <root>
        <mxCell id="0" />
        <mxCell id="1" parent="0" />
        <mxCell id="ex_ThmW1-4U8Ep_I_nlG-1" value="Flowchart Berjalan" style="text;strokeColor=#6c8ebf;fillColor=#dae8fc;html=1;fontSize=24;fontStyle=1;verticalAlign=middle;align=center;" vertex="1" parent="1">
          <mxGeometry x="100" width="1050" height="50" as="geometry" />
        </mxCell>
        <mxCell id="ex_ThmW1-4U8Ep_I_nlG-3" value="&lt;span style=&quot;font-size: 20px&quot;&gt;Guru&lt;br&gt;&lt;/span&gt;" style="text;html=1;strokeColor=#6c8ebf;fillColor=#dae8fc;align=center;verticalAlign=middle;whiteSpace=wrap;rounded=0;" vertex="1" parent="1">
          <mxGeometry x="100" y="50" width="520" height="40" as="geometry" />
        </mxCell>
        <mxCell id="ex_ThmW1-4U8Ep_I_nlG-4" value="&lt;font style=&quot;font-size: 20px&quot;&gt;Murid&lt;/font&gt;" style="text;html=1;strokeColor=#6c8ebf;fillColor=#dae8fc;align=center;verticalAlign=middle;whiteSpace=wrap;rounded=0;" vertex="1" parent="1">
          <mxGeometry x="620" y="50" width="530" height="40" as="geometry" />
        </mxCell>
        <mxCell id="ex_ThmW1-4U8Ep_I_nlG-6" value="" style="ellipse;whiteSpace=wrap;html=1;" vertex="1" parent="1">
          <mxGeometry x="410" y="100" width="110" height="70" as="geometry" />
        </mxCell>
        <UserObject label="&lt;font style=&quot;font-size: 20px&quot;&gt;Start&lt;/font&gt;" placeholders="1" name="Variable" id="ex_ThmW1-4U8Ep_I_nlG-8">
          <mxCell style="text;html=1;strokeColor=none;fillColor=none;align=center;verticalAlign=middle;whiteSpace=wrap;overflow=hidden;strokeWidth=7;" vertex="1" parent="1">
            <mxGeometry x="426" y="122.5" width="80" height="25" as="geometry" />
          </mxCell>
        </UserObject>
        <mxCell id="ex_ThmW1-4U8Ep_I_nlG-9" value="" style="endArrow=classic;html=1;fillColor=#dae8fc;strokeColor=#6c8ebf;" edge="1" parent="1">
          <mxGeometry width="50" height="50" relative="1" as="geometry">
            <mxPoint x="465.29" y="170" as="sourcePoint" />
            <mxPoint x="465" y="220" as="targetPoint" />
          </mxGeometry>
        </mxCell>
        <mxCell id="ex_ThmW1-4U8Ep_I_nlG-16" value="" style="rounded=0;whiteSpace=wrap;html=1;strokeWidth=1;" vertex="1" parent="1">
          <mxGeometry x="398.5" y="218" width="120" height="60" as="geometry" />
        </mxCell>
        <UserObject label="&lt;font style=&quot;font-size: 15px&quot;&gt;membuat tugas&lt;/font&gt;" placeholders="1" name="Variable" id="ex_ThmW1-4U8Ep_I_nlG-18">
          <mxCell style="text;html=1;strokeColor=none;fillColor=none;align=center;verticalAlign=middle;whiteSpace=wrap;overflow=hidden;" vertex="1" parent="1">
            <mxGeometry x="418.5" y="228" width="80" height="40" as="geometry" />
          </mxCell>
        </UserObject>
        <mxCell id="ex_ThmW1-4U8Ep_I_nlG-19" value="" style="rounded=0;whiteSpace=wrap;html=1;strokeWidth=1;" vertex="1" parent="1">
          <mxGeometry x="398.5" y="328" width="120" height="60" as="geometry" />
        </mxCell>
        <mxCell id="ex_ThmW1-4U8Ep_I_nlG-20" value="" style="endArrow=classic;html=1;fillColor=#dae8fc;strokeColor=#6c8ebf;" edge="1" parent="1">
          <mxGeometry width="50" height="50" relative="1" as="geometry">
            <mxPoint x="465.5800000000002" y="278" as="sourcePoint" />
            <mxPoint x="465.29000000000025" y="328" as="targetPoint" />
          </mxGeometry>
        </mxCell>
        <UserObject label="&lt;font style=&quot;font-size: 15px&quot;&gt;mengirim tugas&lt;/font&gt;" placeholders="1" name="Variable" id="ex_ThmW1-4U8Ep_I_nlG-21">
          <mxCell style="text;html=1;strokeColor=none;fillColor=none;align=center;verticalAlign=middle;whiteSpace=wrap;overflow=hidden;" vertex="1" parent="1">
            <mxGeometry x="416" y="338" width="90" height="40" as="geometry" />
          </mxCell>
        </UserObject>
        <mxCell id="ex_ThmW1-4U8Ep_I_nlG-24" value="" style="shape=document;whiteSpace=wrap;html=1;boundedLbl=1;strokeWidth=1;" vertex="1" parent="1">
          <mxGeometry x="250" y="328" width="110" height="72" as="geometry" />
        </mxCell>
        <UserObject label="&lt;font style=&quot;font-size: 15px&quot;&gt;data siswa&lt;/font&gt;" placeholders="1" name="Variable" id="ex_ThmW1-4U8Ep_I_nlG-25">
          <mxCell style="text;html=1;strokeColor=none;fillColor=none;align=center;verticalAlign=middle;whiteSpace=wrap;overflow=hidden;" vertex="1" parent="1">
            <mxGeometry x="260" y="338" width="90" height="30" as="geometry" />
          </mxCell>
        </UserObject>
        <mxCell id="ex_ThmW1-4U8Ep_I_nlG-26" value="" style="endArrow=classic;html=1;fillColor=#dae8fc;strokeColor=#6c8ebf;" edge="1" parent="1">
          <mxGeometry width="50" height="50" relative="1" as="geometry">
            <mxPoint x="360" y="357.17" as="sourcePoint" />
            <mxPoint x="400" y="357" as="targetPoint" />
          </mxGeometry>
        </mxCell>
        <mxCell id="ex_ThmW1-4U8Ep_I_nlG-30" value="" style="edgeStyle=elbowEdgeStyle;elbow=vertical;endArrow=classic;html=1;fillColor=#dae8fc;strokeColor=#6c8ebf;" edge="1" parent="1">
          <mxGeometry width="50" height="50" relative="1" as="geometry">
            <mxPoint x="470" y="388" as="sourcePoint" />
            <mxPoint x="870" y="480" as="targetPoint" />
          </mxGeometry>
        </mxCell>
        <mxCell id="ex_ThmW1-4U8Ep_I_nlG-31" value="" style="rounded=0;whiteSpace=wrap;html=1;strokeWidth=1;" vertex="1" parent="1">
          <mxGeometry x="810" y="480" width="120" height="60" as="geometry" />
        </mxCell>
        <UserObject label="&lt;font style=&quot;font-size: 15px&quot;&gt;Mengerjakan tugas&lt;/font&gt;" placeholders="1" name="Variable" id="ex_ThmW1-4U8Ep_I_nlG-33">
          <mxCell style="text;html=1;strokeColor=none;fillColor=none;align=center;verticalAlign=middle;whiteSpace=wrap;overflow=hidden;" vertex="1" parent="1">
            <mxGeometry x="815" y="485" width="110" height="50" as="geometry" />
          </mxCell>
        </UserObject>
        <mxCell id="ex_ThmW1-4U8Ep_I_nlG-34" value="" style="endArrow=classic;html=1;fillColor=#dae8fc;strokeColor=#6c8ebf;" edge="1" parent="1">
          <mxGeometry width="50" height="50" relative="1" as="geometry">
            <mxPoint x="869.17" y="540" as="sourcePoint" />
            <mxPoint x="869" y="600" as="targetPoint" />
          </mxGeometry>
        </mxCell>
        <mxCell id="ex_ThmW1-4U8Ep_I_nlG-35" value="" style="rounded=0;whiteSpace=wrap;html=1;strokeWidth=1;" vertex="1" parent="1">
          <mxGeometry x="810" y="600" width="120" height="60" as="geometry" />
        </mxCell>
        <mxCell id="ex_ThmW1-4U8Ep_I_nlG-43" value="" style="edgeStyle=orthogonalEdgeStyle;rounded=0;orthogonalLoop=1;jettySize=auto;html=1;" edge="1" parent="1" source="ex_ThmW1-4U8Ep_I_nlG-36" target="ex_ThmW1-4U8Ep_I_nlG-39">
          <mxGeometry relative="1" as="geometry" />
        </mxCell>
        <UserObject label="&lt;font style=&quot;font-size: 15px&quot;&gt;mengumpulkan tugas&lt;/font&gt;" placeholders="1" name="Variable" id="ex_ThmW1-4U8Ep_I_nlG-36">
          <mxCell style="text;html=1;strokeColor=none;fillColor=none;align=center;verticalAlign=middle;whiteSpace=wrap;overflow=hidden;" vertex="1" parent="1">
            <mxGeometry x="810" y="605" width="120" height="50" as="geometry" />
          </mxCell>
        </UserObject>
        <mxCell id="ex_ThmW1-4U8Ep_I_nlG-37" value="" style="shape=document;whiteSpace=wrap;html=1;boundedLbl=1;strokeWidth=1;" vertex="1" parent="1">
          <mxGeometry x="992" y="600" width="110" height="70" as="geometry" />
        </mxCell>
        <UserObject label="&lt;font style=&quot;font-size: 15px&quot;&gt;Data guru&lt;/font&gt;" placeholders="1" name="Variable" id="ex_ThmW1-4U8Ep_I_nlG-39">
          <mxCell style="text;html=1;strokeColor=none;fillColor=none;align=center;verticalAlign=middle;whiteSpace=wrap;overflow=hidden;" vertex="1" parent="1">
            <mxGeometry x="1007" y="620" width="80" height="20" as="geometry" />
          </mxCell>
        </UserObject>
        <mxCell id="ex_ThmW1-4U8Ep_I_nlG-42" value="" style="endArrow=classic;html=1;fillColor=#dae8fc;strokeColor=#6c8ebf;entryX=1;entryY=0.5;entryDx=0;entryDy=0;" edge="1" parent="1" target="ex_ThmW1-4U8Ep_I_nlG-36">
          <mxGeometry width="50" height="50" relative="1" as="geometry">
            <mxPoint x="992" y="629.17" as="sourcePoint" />
            <mxPoint x="937" y="629.17" as="targetPoint" />
          </mxGeometry>
        </mxCell>
        <mxCell id="ex_ThmW1-4U8Ep_I_nlG-44" value="" style="edgeStyle=elbowEdgeStyle;elbow=vertical;endArrow=classic;html=1;fillColor=#dae8fc;strokeColor=#6c8ebf;" edge="1" parent="1">
          <mxGeometry width="50" height="50" relative="1" as="geometry">
            <mxPoint x="870" y="660" as="sourcePoint" />
            <mxPoint x="450" y="740" as="targetPoint" />
          </mxGeometry>
        </mxCell>
        <mxCell id="ex_ThmW1-4U8Ep_I_nlG-45" value="" style="rounded=0;whiteSpace=wrap;html=1;strokeWidth=1;" vertex="1" parent="1">
          <mxGeometry x="390" y="740" width="120" height="60" as="geometry" />
        </mxCell>
        <UserObject label="&lt;font style=&quot;font-size: 15px&quot;&gt;memeriksa tugas&lt;/font&gt;" placeholders="1" name="Variable" id="ex_ThmW1-4U8Ep_I_nlG-46">
          <mxCell style="text;html=1;strokeColor=none;fillColor=none;align=center;verticalAlign=middle;whiteSpace=wrap;overflow=hidden;" vertex="1" parent="1">
            <mxGeometry x="410" y="750" width="80" height="40" as="geometry" />
          </mxCell>
        </UserObject>
        <mxCell id="ex_ThmW1-4U8Ep_I_nlG-47" value="" style="shape=document;whiteSpace=wrap;html=1;boundedLbl=1;strokeWidth=1;" vertex="1" parent="1">
          <mxGeometry x="200" y="740" width="110" height="70" as="geometry" />
        </mxCell>
        <UserObject label="&lt;font style=&quot;font-size: 15px&quot;&gt;Data tugas&lt;/font&gt;" placeholders="1" name="Variable" id="ex_ThmW1-4U8Ep_I_nlG-48">
          <mxCell style="text;html=1;strokeColor=none;fillColor=none;align=center;verticalAlign=middle;whiteSpace=wrap;overflow=hidden;" vertex="1" parent="1">
            <mxGeometry x="215" y="755" width="80" height="30" as="geometry" />
          </mxCell>
        </UserObject>
        <mxCell id="ex_ThmW1-4U8Ep_I_nlG-50" value="" style="endArrow=classic;html=1;fillColor=#dae8fc;strokeColor=#6c8ebf;" edge="1" parent="1">
          <mxGeometry width="50" height="50" relative="1" as="geometry">
            <mxPoint x="310" y="769.17" as="sourcePoint" />
            <mxPoint x="390" y="769.17" as="targetPoint" />
          </mxGeometry>
        </mxCell>
        <mxCell id="ex_ThmW1-4U8Ep_I_nlG-51" value="" style="strokeWidth=2;html=1;shape=mxgraph.flowchart.decision;whiteSpace=wrap;" vertex="1" parent="1">
          <mxGeometry x="398.5" y="850" width="100" height="100" as="geometry" />
        </mxCell>
        <UserObject label="&lt;font style=&quot;font-size: 15px&quot;&gt;siswa lulus ?&lt;/font&gt;" placeholders="1" name="Variable" id="ex_ThmW1-4U8Ep_I_nlG-52">
          <mxCell style="text;html=1;strokeColor=none;fillColor=none;align=center;verticalAlign=middle;whiteSpace=wrap;overflow=hidden;" vertex="1" parent="1">
            <mxGeometry x="408.5" y="885" width="80" height="40" as="geometry" />
          </mxCell>
        </UserObject>
        <mxCell id="ex_ThmW1-4U8Ep_I_nlG-53" value="" style="endArrow=classic;html=1;fillColor=#dae8fc;strokeColor=#6c8ebf;" edge="1" parent="1">
          <mxGeometry width="50" height="50" relative="1" as="geometry">
            <mxPoint x="447.66999999999996" y="800" as="sourcePoint" />
            <mxPoint x="448" y="850" as="targetPoint" />
          </mxGeometry>
        </mxCell>
        <mxCell id="ex_ThmW1-4U8Ep_I_nlG-55" value="" style="verticalLabelPosition=bottom;verticalAlign=top;html=1;shape=trapezoid;perimeter=trapezoidPerimeter;whiteSpace=wrap;size=0.23;arcSize=10;flipV=1;strokeWidth=1;" vertex="1" parent="1">
          <mxGeometry x="200" y="867.5" width="110" height="65" as="geometry" />
        </mxCell>
        <mxCell id="ex_ThmW1-4U8Ep_I_nlG-56" value="" style="endArrow=classic;html=1;fillColor=#dae8fc;strokeColor=#6c8ebf;" edge="1" parent="1">
          <mxGeometry width="50" height="50" relative="1" as="geometry">
            <mxPoint x="398.5" y="899.17" as="sourcePoint" />
            <mxPoint x="298.5" y="899.17" as="targetPoint" />
          </mxGeometry>
        </mxCell>
        <UserObject label="&lt;font style=&quot;font-size: 15px&quot;&gt;ya&lt;/font&gt;" placeholders="1" name="Variable" id="ex_ThmW1-4U8Ep_I_nlG-57">
          <mxCell style="text;html=1;strokeColor=none;fillColor=none;align=center;verticalAlign=middle;whiteSpace=wrap;overflow=hidden;" vertex="1" parent="1">
            <mxGeometry x="310" y="867.5" width="80" height="30" as="geometry" />
          </mxCell>
        </UserObject>
        <UserObject label="&lt;font style=&quot;font-size: 15px&quot;&gt;menyimpan nilai siswa&lt;/font&gt;" placeholders="1" name="Variable" id="ex_ThmW1-4U8Ep_I_nlG-58">
          <mxCell style="text;html=1;strokeColor=none;fillColor=none;align=center;verticalAlign=middle;whiteSpace=wrap;overflow=hidden;" vertex="1" parent="1">
            <mxGeometry x="215" y="867.5" width="80" height="50" as="geometry" />
          </mxCell>
        </UserObject>
        <mxCell id="ex_ThmW1-4U8Ep_I_nlG-59" value="" style="rounded=0;whiteSpace=wrap;html=1;strokeWidth=1;" vertex="1" parent="1">
          <mxGeometry x="388.5" y="995" width="120" height="60" as="geometry" />
        </mxCell>
        <UserObject label="&lt;font style=&quot;font-size: 15px&quot;&gt;membuat tugas baru&lt;/font&gt;" placeholders="1" name="Variable" id="ex_ThmW1-4U8Ep_I_nlG-60">
          <mxCell style="text;html=1;strokeColor=none;fillColor=none;align=center;verticalAlign=middle;whiteSpace=wrap;overflow=hidden;" vertex="1" parent="1">
            <mxGeometry x="410" y="1000" width="80" height="50" as="geometry" />
          </mxCell>
        </UserObject>
        <mxCell id="ex_ThmW1-4U8Ep_I_nlG-61" value="" style="endArrow=classic;html=1;fillColor=#dae8fc;strokeColor=#6c8ebf;" edge="1" parent="1">
          <mxGeometry width="50" height="50" relative="1" as="geometry">
            <mxPoint x="447.66999999999996" y="950" as="sourcePoint" />
            <mxPoint x="448" y="1000" as="targetPoint" />
          </mxGeometry>
        </mxCell>
        <UserObject label="&lt;font style=&quot;font-size: 15px&quot;&gt;tidak&lt;/font&gt;" placeholders="1" name="Variable" id="ex_ThmW1-4U8Ep_I_nlG-62">
          <mxCell style="text;html=1;strokeColor=none;fillColor=none;align=center;verticalAlign=middle;whiteSpace=wrap;overflow=hidden;" vertex="1" parent="1">
            <mxGeometry x="438.5" y="950" width="80" height="30" as="geometry" />
          </mxCell>
        </UserObject>
        <mxCell id="ex_ThmW1-4U8Ep_I_nlG-65" value="" style="shape=partialRectangle;whiteSpace=wrap;html=1;bottom=1;right=1;left=1;top=0;fillColor=none;routingCenterX=-0.5;strokeWidth=1;" vertex="1" parent="1">
          <mxGeometry x="130" y="1055" width="330" height="55" as="geometry" />
        </mxCell>
        <mxCell id="ex_ThmW1-4U8Ep_I_nlG-69" value="" style="edgeStyle=elbowEdgeStyle;elbow=vertical;endArrow=classic;html=1;entryX=0.25;entryY=1;entryDx=0;entryDy=0;" edge="1" parent="1" target="ex_ThmW1-4U8Ep_I_nlG-19">
          <mxGeometry width="50" height="50" relative="1" as="geometry">
            <mxPoint x="130" y="1060" as="sourcePoint" />
            <mxPoint x="190" y="995" as="targetPoint" />
            <Array as="points">
              <mxPoint x="280" y="660" />
            </Array>
          </mxGeometry>
        </mxCell>
        <mxCell id="ex_ThmW1-4U8Ep_I_nlG-70" value="" style="endArrow=none;html=1;" edge="1" parent="1">
          <mxGeometry width="50" height="50" relative="1" as="geometry">
            <mxPoint x="130" y="550" as="sourcePoint" />
            <mxPoint x="180" y="500" as="targetPoint" />
          </mxGeometry>
        </mxCell>
        <mxCell id="ex_ThmW1-4U8Ep_I_nlG-71" value="" style="endArrow=none;html=1;" edge="1" parent="1">
          <mxGeometry width="50" height="50" relative="1" as="geometry">
            <mxPoint x="130" y="550" as="sourcePoint" />
            <mxPoint x="180" y="500" as="targetPoint" />
          </mxGeometry>
        </mxCell>
        <mxCell id="ex_ThmW1-4U8Ep_I_nlG-72" value="" style="endArrow=none;html=1;entryX=0;entryY=1;entryDx=0;entryDy=0;fillColor=#dae8fc;strokeColor=#6c8ebf;" edge="1" parent="1" target="ex_ThmW1-4U8Ep_I_nlG-4">
          <mxGeometry width="50" height="50" relative="1" as="geometry">
            <mxPoint x="620" y="1130" as="sourcePoint" />
            <mxPoint x="650" y="220" as="targetPoint" />
          </mxGeometry>
        </mxCell>
      </root>
    </mxGraphModel>
  </diagram>
</mxfile>
